ffmpeg started on 2016-11-27 at 09:34:18
Report written to "Output/NVENCh264/results/ffmpeg/old_town_cross_2160p50llhq7000k.log"
Command line:
Tools/ffmpeg/ffmpeg -benchmark -y -i Input/y4m/old_town_cross_2160p50.y4m -c:v h264_nvenc -preset llhq -b:v 7000k -an Output/NVENCh264/encoded/old_town_cross_2160p50llhq7000k.mkv
ffmpeg version N-82227-gdb23fde Copyright (c) 2000-2016 the FFmpeg developers
  built with gcc 5.4.0 (Ubuntu 5.4.0-6ubuntu1~16.04.2) 20160609
  configuration: --prefix=/home/jaroslav/ffmpeg_build --pkg-config-flags=--static --extra-cflags=-I/home/jaroslav/ffmpeg_build/include --extra-ldflags=-L/home/jaroslav/ffmpeg_build/lib --bindir=/home/jaroslav/bin --enable-gpl --enable-libass --enable-libfdk-aac --enable-libfreetype --enable-libmp3lame --enable-libopus --enable-libtheora --enable-libvorbis --enable-libvpx --enable-libx264 --enable-libx265 --enable-nvenc --enable-libmfx --enable-libxvid --enable-libgsm --enable-libopencore-amrnb --enable-version3 --enable-nonfree
  libavutil      55. 35.100 / 55. 35.100
  libavcodec     57. 66.101 / 57. 66.101
  libavformat    57. 57.100 / 57. 57.100
  libavdevice    57.  2.100 / 57.  2.100
  libavfilter     6. 66.100 /  6. 66.100
  libswscale      4.  3.100 /  4.  3.100
  libswresample   2.  4.100 /  2.  4.100
  libpostproc    54.  2.100 / 54.  2.100
Input #0, yuv4mpegpipe, from 'Input/y4m/old_town_cross_2160p50.y4m':
  Duration: 00:00:10.00, start: 0.000000, bitrate: 4976642 kb/s
    Stream #0:0: Video: rawvideo (I420 / 0x30323449), yuv420p(progressive), 3840x2160, SAR 1:1 DAR 16:9, 50 fps, 50 tbr, 50 tbn, 50 tbc
[h264_nvenc @ 0x3fc1120] The variable bitrate rate-control requires the 'qmin' and/or 'qmax' option set.
Output #0, matroska, to 'Output/NVENCh264/encoded/old_town_cross_2160p50llhq7000k.mkv':
  Metadata:
    encoder         : Lavf57.57.100
    Stream #0:0: Video: h264 (h264_nvenc) (Main) (H264 / 0x34363248), yuv420p, 3840x2160 [SAR 1:1 DAR 16:9], q=-1--1, 7000 kb/s, 50 fps, 1k tbn, 50 tbc
    Metadata:
      encoder         : Lavc57.66.101 h264_nvenc
    Side data:
      cpb: bitrate max/min/avg: 0/0/7000000 buffer size: 14000000 vbv_delay: -1
Stream mapping:
  Stream #0:0 -> #0:0 (rawvideo (native) -> h264 (h264_nvenc))
Press [q] to stop, [?] for help
frame=   19 fps=0.0 q=0.0 size=       0kB time=00:00:00.00 bitrate=N/A speed=   0x    frame=   25 fps= 25 q=0.0 size=       0kB time=00:00:00.00 bitrate=N/A speed=   0x    frame=   43 fps= 28 q=36.0 size=       1kB time=00:00:00.24 bitrate=  24.8kbits/s speed=0.157x    frame=   61 fps= 30 q=34.0 size=       1kB time=00:00:00.60 bitrate=   9.9kbits/s speed=0.293x    frame=   78 fps= 28 q=35.0 size=       1kB time=00:00:00.94 bitrate=   6.4kbits/s speed=0.338x    frame=   96 fps= 29 q=34.0 size=       1kB time=00:00:01.30 bitrate=   4.6kbits/s speed=0.393x    frame=  113 fps= 30 q=35.0 size=       1kB time=00:00:01.64 bitrate=   3.6kbits/s speed=0.431x    frame=  131 fps= 30 q=33.0 size=       1kB time=00:00:02.00 bitrate=   3.0kbits/s speed=0.463x    frame=  149 fps= 31 q=33.0 size=       1kB time=00:00:02.36 bitrate=   2.5kbits/s speed=0.488x    frame=  167 fps= 31 q=33.0 size=       1kB time=00:00:02.72 bitrate=   2.2kbits/s speed=0.508x    frame=  185 fps= 32 q=35.0 size=       1kB time=00:00:03.08 bitrate=   1.9kbits/s speed=0.525x    frame=  203 fps= 32 q=33.0 size=       1kB time=00:00:03.44 bitrate=   1.7kbits/s speed=0.54x    frame=  221 fps= 32 q=33.0 size=       1kB time=00:00:03.80 bitrate=   1.6kbits/s speed=0.552x    frame=  239 fps= 32 q=33.0 size=       1kB time=00:00:04.16 bitrate=   1.4kbits/s speed=0.562x    frame=  250 fps= 31 q=33.0 size=       1kB time=00:00:04.38 bitrate=   1.4kbits/s speed=0.55x    frame=  268 fps= 32 q=33.0 size=       1kB time=00:00:04.74 bitrate=   1.3kbits/s speed=0.559x    frame=  286 fps= 32 q=38.0 size=    4135kB time=00:00:05.10 bitrate=6640.4kbits/s speed=0.567x    frame=  304 fps= 32 q=36.0 size=    4135kB time=00:00:05.46 bitrate=6202.7kbits/s speed=0.574x    frame=  322 fps= 32 q=37.0 size=    4135kB time=00:00:05.82 bitrate=5819.1kbits/s speed=0.581x    frame=  339 fps= 31 q=34.0 size=    4135kB time=00:00:06.16 bitrate=5497.9kbits/s speed=0.57x    frame=  357 fps= 32 q=34.0 size=    4135kB time=00:00:06.52 bitrate=5194.4kbits/s speed=0.576x    frame=  375 fps= 32 q=34.0 size=    4135kB time=00:00:06.88 bitrate=4922.7kbits/s speed=0.581x    frame=  393 fps= 32 q=33.0 size=    4135kB time=00:00:07.24 bitrate=4677.9kbits/s speed=0.586x    frame=  411 fps= 31 q=33.0 size=    4135kB time=00:00:07.60 bitrate=4456.4kbits/s speed=0.577x    frame=  429 fps= 31 q=34.0 size=    4135kB time=00:00:07.96 bitrate=4254.8kbits/s speed=0.582x    frame=  447 fps= 31 q=33.0 size=    4135kB time=00:00:08.32 bitrate=4070.8kbits/s speed=0.586x    frame=  465 fps= 32 q=34.0 size=    4135kB time=00:00:08.68 bitrate=3901.9kbits/s speed=0.59x    frame=  483 fps= 32 q=33.0 size=    4135kB time=00:00:09.04 bitrate=3746.6kbits/s speed=0.594x    frame=  500 fps= 32 q=34.0 size=    4135kB time=00:00:09.38 bitrate=3610.8kbits/s speed=0.596x    frame=  500 fps= 32 q=33.0 Lsize=    8420kB time=00:00:09.98 bitrate=6910.9kbits/s speed=0.633x    
video:8416kB audio:0kB subtitle:0kB other streams:0kB global headers:0kB muxing overhead: 0.052462%
bench: utime=1.052s
bench: maxrss=1408840kB
